<?xml version="1.0" encoding="iso-8859-1"?>
<!-- Generator: Adobe Illustrator 16.0.0, SVG Export Plug-In . SVG Version: 6.00 Build 0)  -->
<!DOCTYPE svg PUBLIC "-//W3C//DTD SVG 1.1//EN" "http://www.w3.org/Graphics/SVG/1.1/DTD/svg11.dtd">
<svg version="1.1" id="Capa_1" xmlns="http://www.w3.org/2000/svg" xmlns:xlink="http://www.w3.org/1999/xlink" x="0px" y="0px"
	 width="185.889px" height="185.889px" viewBox="0 0 185.889 185.889" style="enable-background:new 0 0 185.889 185.889;"
	 xml:space="preserve">
<g>
	<path d="M111.095,17.196c0.51-1.128,0.211-2.919-1.283-3.154C91.281,11.12,72.44,6.984,53.59,8.792
		c-15.257,1.463-28.243,10.155-37.114,22.381c-7.699,10.611-9.146,23.09-5.689,34.021c0.036,0.206,0.11,0.418,0.204,0.631
		c3.654,10.892,12.208,20.161,24.338,24.361c4.957,1.716,10.208,2.527,15.526,2.579c-1.925,4.146-1.945,9.07-1.999,13.642
		c-24.297,2.229-49.878,14.684-48.824,42.542c0.984,26.012,34.256,28.283,53.728,28.579c20.455,0.312,54.063-6.295,55.847-32.121
		c1.776-25.732-30.895-33.646-31.039-57.562c-0.003-0.492-0.146-0.893-0.374-1.205c5.635-2.607,10.855-5.929,15.294-9.814
		c6.706-5.868,11.298-13.859,11.99-22.796c0.715-9.249-3.709-16.417-9.561-22.576C102.534,28.576,108.005,24.029,111.095,17.196z
		 M4.236,143.208c-0.005,0.014-0.015,0.022-0.019,0.038c-0.275,1.012-0.427,1.981-0.525,2.933c0.034-1.954,0.286-3.899,0.737-5.809
		C4.295,141.323,4.236,142.269,4.236,143.208z M35.426,34.453c-0.032-0.33-0.091-0.666-0.13-0.998
		c0.501-0.317,0.998-0.639,1.502-0.951C36.291,33.118,35.842,33.774,35.426,34.453z M38.51,58.071
		c-3.152-10.089-2.417-22.897,7.51-28.13c15.41,4.09,35.804,37.375,24.271,47.904c-0.835,0.595-1.701,1.168-2.61,1.701
		c-2.012,0.95-4.549,1.501-7.759,1.49C48.622,80.998,41.361,67.199,38.51,58.071z M10.604,143.657
		c-0.078-1.568,0.013-3.153,0.269-4.714c0.059,0.443,0.119,0.888,0.204,1.326C10.853,141.4,10.692,142.534,10.604,143.657z
		 M83.22,133.783c0.739,1.253,1.258,2.485,1.586,3.692c0.147,1.701,0.214,3.41,0.265,5.12c-1.493,9.175-13.36,16.148-21.567,18.13
		c-11.505,2.779-28.37,2.498-33.373-10.473c-2.074-5.376-1.746-11.486-0.211-16.925c1.948-6.903,6.81-9.11,13.028-10.956
		c7.854-1.078,16.602-1.789,24.301,0.059c2.904,1.096,5.747,2.301,8.483,3.515C78.641,127.818,81.2,130.354,83.22,133.783z
		 M98.242,41.714c-1.056-1.729-2.278-3.357-3.584-4.821c-0.261-0.293-0.559-0.509-0.877-0.658c-0.464-0.476-0.941-0.939-1.438-1.384
		c-0.441-0.676-0.907-1.329-1.392-1.963c0.131,0.052,0.26,0.109,0.405,0.123C94.077,35.773,96.488,38.541,98.242,41.714z"/>
	<path d="M185.371,82.897c0.705-1.196,0.113-3.229-1.744-3.364c-9.773-0.708-19.587-0.926-29.409-0.878
		c-0.277-8.784-0.688-17.576-1.23-26.235c-0.074-1.181-1.335-1.483-2.03-0.92c-2.374-0.984-5.081-1.389-7.594-1.632
		c-2.025-0.196-4.61-0.18-6.166,1.288c-0.852-0.35-1.965,0.04-1.952,1.263c0.09,8.861,0.354,17.716,0.65,26.57
		c-9.493,0.297-18.978,0.73-28.427,1.12c-0.99,0.041-1.484,0.793-1.482,1.542c-1.287,1.869-1.463,5.371-1.502,6.89
		c-0.062,2.44,0.08,6.379,2.175,8.08c0.679,0.55,1.881,0.821,2.521,0c0.156-0.202,0.325-0.38,0.483-0.565
		c-0.356,0.92,0.162,2.252,1.348,2.149c8.42-0.732,16.956-0.505,25.508-0.16c0.044,1.467,0.097,2.934,0.137,4.4
		c0.162,5.932,0.406,11.863,0.805,17.783c0.144,2.12-0.033,5.663,1.97,7.068c0.595,0.417,1.169,0.323,1.602-0.007
		c0.002,0.009,0.002,0.018,0.004,0.026c0.02,0.123,0.075,0.201,0.109,0.308c-0.405,0.026-0.874,0.229-1.051,0.622
		c-0.041,0.086-0.08,0.173-0.116,0.261c-0.004,0.014-0.008,0.028-0.011,0.042c-0.135,0.496,0.066,1.212,0.583,1.432
		c3.384,1.441,11.021,1.123,12.628-2.779c0.065-0.162,0.079-0.326,0.068-0.489c0.034-0.062,0.086-0.109,0.114-0.176
		c3.244-7.812,1.248-19.127,1.232-27.183c0-0.229-0.008-0.462-0.009-0.691c9.415,0.116,18.767-0.343,27.925-2.474
		c0.267,0.984,1.921,1.026,2.241-0.067c0.778-2.659,1.045-5.388,1.103-8.149C185.884,86.49,186.032,84.4,185.371,82.897z
		 M143.987,53.982c-0.469-0.53-1.032-0.582-1.519-0.382c-0.049-0.104-0.095-0.208-0.144-0.312c0.184,0.011,0.368,0.024,0.541,0.034
		c0.782,0.044,1.545,0.159,2.3,0.299c-0.2,0.174-0.358,0.412-0.476,0.703c-0.167-0.091-0.356-0.149-0.555-0.189
		C144.089,54.084,144.031,54.032,143.987,53.982z M146.71,127.07c-0.691,0.186-1.389,0.286-2.087,0.36
		c0.093-0.188,0.161-0.388,0.188-0.605c0.525,0.17,1.128,0.138,1.638-0.111c0.243,0.109,0.5,0.178,0.77,0.189
		C147.05,126.963,146.881,127.025,146.71,127.07z M182.144,83.685c-0.006,0.276,0.021,0.562,0.049,0.848
		c-0.431-0.351-1.014-0.434-1.568-0.316c-0.607-0.169-1.271,0.031-1.757,0.461c-0.151-0.066-0.309-0.107-0.472-0.123
		c-0.126-0.425-0.369-0.81-0.747-1.065C179.146,83.551,180.646,83.605,182.144,83.685z"/>
</g>
<g>
</g>
<g>
</g>
<g>
</g>
<g>
</g>
<g>
</g>
<g>
</g>
<g>
</g>
<g>
</g>
<g>
</g>
<g>
</g>
<g>
</g>
<g>
</g>
<g>
</g>
<g>
</g>
<g>
</g>
</svg>
