<?xml version="1.0" encoding="iso-8859-1"?>
<!-- Generator: Adobe Illustrator 16.0.0, SVG Export Plug-In . SVG Version: 6.00 Build 0)  -->
<!DOCTYPE svg PUBLIC "-//W3C//DTD SVG 1.1//EN" "http://www.w3.org/Graphics/SVG/1.1/DTD/svg11.dtd">
<svg version="1.1" id="Capa_1" xmlns="http://www.w3.org/2000/svg" xmlns:xlink="http://www.w3.org/1999/xlink" x="0px" y="0px"
	 width="186.991px" height="186.991px" viewBox="0 0 186.991 186.991" style="enable-background:new 0 0 186.991 186.991;"
	 xml:space="preserve">
<g>
	<path d="M184.702,60.628c-3.08-1.656-6.945-2.152-10.284-3.191c-1.926-0.6-3.859-1.152-5.808-1.624
		c1.528-2.514,3.214-4.93,5.155-7.039c4.604-4.998-2.774-11.277-7.054-7.046c-0.008-0.01-0.016-0.02-0.022-0.03
		c-1.375,1.437-2.637,3.011-3.852,4.632c-0.854,0.858-1.733,1.69-2.609,2.524c-5.328-8.563-13.466-14.969-24.113-15.933
		c-19.327-1.752-29.619,14.193-26.978,31.325C82.904,59.708,57.36,45.937,46.265,20.72c-1.873-4.258-8.789-2.96-9.732,1.272
		c-5.055,22.681,1.533,42.954,18.19,56.664c-6.649,0.775-13.195,0.988-20.332,0.189c-4.749-0.532-6.568,5.916-3.68,8.885
		c7.811,8.03,16.571,12.875,26.425,15.638c-4.732,2.256-9.631,4.113-15.468,4.741c-4.295,0.462-6.791,5.178-3.57,8.619
		c0.926,0.99,1.862,1.921,2.804,2.811c-0.5,1.697,0.192,3.607,2.276,4.223c1.703,0.503,3.387,1.032,5.065,1.569
		c4.948,3.202,10.17,5.227,15.825,6.026c-17.479,11.134-36.56,14.226-58.784,12.902c-2.868-0.172-5.297,2.532-5.284,5.283
		c0.004,0.81,0.008,1.617,0.012,2.427c0.009,1.724,0.967,3.788,2.611,4.552c66.337,30.836,157.084,3.682,164.704-77.675
		c0.389-4.154,0.144-8.533-0.639-12.876c2.135,0.546,4.243,1.23,6.341,1.876c3.212,0.99,7.26,2.616,10.564,1.282
		C187.041,67.733,188.602,62.726,184.702,60.628z M55.703,117.953c-1.022-0.553-2.031-1.16-3.023-1.843
		c1.442-0.45,2.82-1.01,4.204-1.563c-0.169,0.805-0.114,1.631,0.101,2.401C56.478,117.197,56.046,117.534,55.703,117.953z
		 M141.404,48.154c-0.153-0.068-0.277-0.136-0.437-0.204c-1.969-1.97-4.22-3.488-6.663-4.244c2.146,0.164,4.532,0.827,7.146,2.035
		C141.437,46.567,141.42,47.367,141.404,48.154z"/>
</g>
<g>
</g>
<g>
</g>
<g>
</g>
<g>
</g>
<g>
</g>
<g>
</g>
<g>
</g>
<g>
</g>
<g>
</g>
<g>
</g>
<g>
</g>
<g>
</g>
<g>
</g>
<g>
</g>
<g>
</g>
</svg>
