<?xml version="1.0" encoding="iso-8859-1"?>
<!-- Generator: Adobe Illustrator 16.0.0, SVG Export Plug-In . SVG Version: 6.00 Build 0)  -->
<!DOCTYPE svg PUBLIC "-//W3C//DTD SVG 1.1//EN" "http://www.w3.org/Graphics/SVG/1.1/DTD/svg11.dtd">
<svg version="1.1" id="Capa_1" xmlns="http://www.w3.org/2000/svg" xmlns:xlink="http://www.w3.org/1999/xlink" x="0px" y="0px"
	 width="188.576px" height="188.576px" viewBox="0 0 188.576 188.576" style="enable-background:new 0 0 188.576 188.576;"
	 xml:space="preserve">
<g>
	<g>
		<path d="M92.79,54.405c-0.389-2.117-3.927-2.147-4.29,0c-0.567,3.353-0.904,6.728-0.702,10.129
			c0.16,2.708-0.265,7.874,3.703,7.874C97.747,72.408,93.397,57.707,92.79,54.405z"/>
		<path d="M69.401,95.228c-2.856-0.242-5.752-0.438-8.617-0.499c-2.532-0.054-5.727-0.117-7.707,1.715
			c-0.925,0.856-0.892,2.452,0,3.313c0.204,0.255,0.39,0.523,0.557,0.805c0.378,0.596,1.318,0.413,1.531-0.125
			c1.271,0.076,2.567,0.047,3.856,0.076c-0.28,10.761-1.887,22.281,0.988,32.772c0.39,1.423,2.45,1.401,2.851,0
			c2.905-10.153,2.88-21.441,2.758-31.987c1.27,0.165,2.54,0.282,3.783,0.216C73.486,101.297,73.412,95.567,69.401,95.228z"/>
		<path d="M90,121.268c0.008-1.604,0.499-14.922-0.98-14.405c0.439-0.154,0.552-0.741,0.13-0.997
			c-3.383-2.051-4.128,7.923-4.26,9.126c-0.381,3.471-0.462,6.984-0.515,10.479c-1.393,0.533-3.574,2.773-4.126,1.869
			c-1.364-2.237-1.167-5.734-1.184-8.236c-0.02-3.011,0.361-6.069,0.196-9.071c-0.101-1.845-0.524-3.763-1.894-3.815
			c-5.145-0.202-4.062,15.133-3.724,18.061c0.362,3.131,1.168,6.979,4.234,8.576c1.905,0.992,4.507,0.542,6.546-0.693
			c0.187,0.793,0.525,1.515,1.163,2.054c0.955,0.805,2.08,0.802,3.035,0C91.325,131.942,89.985,124.373,90,121.268z"/>
		<path d="M105.722,104.4c-0.505-0.944-1.942-1.379-2.851-0.747c-1.329,0.924-2.5,1.813-3.584,2.87
			c-0.296-3.649-0.725-7.284-1.169-10.808c-0.206-1.643-2.348-1.643-2.555,0c-1.154,9.176-1.221,18.425-1.896,27.637
			c-0.196,2.681-1.471,9.383,2.56,10.162c0.83,0.16,1.818,0.058,2.41-0.637c0.087-0.103,0.153-0.197,0.227-0.295
			c1.787,1.236,4.376,1.507,6.667,1.162c1.192-0.179,1.979-1.521,1.997-2.624C107.69,122.174,110.169,112.715,105.722,104.4z
			 M102.413,108.323c1.192,6.632,0.185,13.127-0.204,19.806c-0.992-0.469-1.96-1.204-3.068-1.488c0.002-0.133-0.004-0.267,0-0.4
			c0.066-2.369,0.275-4.735,0.413-7.101c0.177-3.054,0.133-6.179-0.039-9.315C100.462,109.267,101.429,108.772,102.413,108.323z"/>
		<path d="M129.18,126.078c-0.463-1.32-2.101-2.293-3.415-1.39c-1.811,1.244-1.895,3.333-3.234,4.874
			c-0.154-0.146-0.312-0.325-0.476-0.559c-1.692-2.416-2.546-6.008-2.312-9.045c0.214,0.019,0.433,0.038,0.642,0.056
			c0.571,0.048,1.694-0.124,2.202,0.103c0.87,0.39,1.624,0.562,2.58,0.544c1.368-0.026,2.232-0.866,2.717-2.067
			c1.688-4.187,2.295-11.112-3.178-12.772c-6.189-1.878-9.372,6.909-10.231,11.271c-1.067,5.408,0.22,11.898,3.846,16.148
			c1.598,1.873,4.343,2.695,6.577,1.492C127.463,133.353,130.178,128.924,129.18,126.078z M123.116,111.457
			c0.006-0.005,0.028-0.013,0.053-0.021c0.033,0.04,0.058,0.056,0.062,0.034c0.085,0.241,0.152,0.487,0.208,0.735
			c0.2,0.891-0.067,2.157-0.437,3.333c-0.552,0.215-1.102,0.451-1.724,0.621c-0.277,0.076-0.552,0.119-0.827,0.169
			c0.35-1.195,0.802-2.359,1.43-3.434C122.217,112.325,122.621,111.892,123.116,111.457z"/>
		<path d="M181.717,86.051c-5.662-49.773-46.404-91.224-98.301-85.526C60.317,3.06,37.946,14.073,23.985,32.994
			C9.608,52.48,4.698,76.744,6.543,100.596c2.014,26.032,12.219,51.375,33.082,67.821c8.776,6.919,19.265,11.617,29.792,15.196
			c5.41,1.839,11.961,3.602,17.99,3.132c15.15,5.613,34.387-2.861,48.062-9.487c11.236-5.445,21.338-13.644,28.947-23.536
			C179.204,134.496,184.43,109.901,181.717,86.051z M136.441,78.923c0.113-0.68,0.216-1.362,0.327-2.042
			c0.256,1.076,0.547,2.146,0.875,3.21c-0.535-0.029-1.073-0.046-1.611-0.064C136.223,79.714,136.37,79.353,136.441,78.923z
			 M121.4,63.771c-0.139,3.607-1.562,12.032,0.526,16.246c-0.203-0.002-0.418,0.002-0.619-0.002
			c-1.008-0.016-2.016-0.009-3.023-0.013c-0.183-0.66-0.377-1.32-0.419-1.991c-0.157-2.526-3.113-3.181-4.537-1.229
			c-1.28,1.755-3.013,3.34-4.849,2.226c-0.764-3.198-1.541-6.387-2.331-9.577c-0.101-0.403-0.331-0.712-0.607-0.971
			c1.236-4.121,1.545-8.792,0.599-12.986c1.307-1.097,1.128-2.837,0.839-4.45c-0.134-0.744-0.314-1.479-0.462-2.22
			c-0.026-0.129-0.042-0.259-0.061-0.388c1.758-0.019,3.517-0.038,5.274-0.055c0.086,5.972,0.499,11.976,0.676,17.942
			c0.084,2.853,3.909,3.236,4.822,0.653c1.965-5.562,0.482-12.692,0.2-18.655c0.08-0.001,0.159-0.002,0.239-0.003
			c1.396-0.017,2.942,0.079,4.516,0.119C120.565,52.704,121.54,60.121,121.4,63.771z M80.832,58.48
			c1.812-3.252,3.371-6.646,4.81-10.098c4.607,0.058,9.333,0.532,12.769,3.938c4.469,4.429,2.289,14.069-0.262,18.807
			c-2.286,4.246-7.752,7.032-12.525,6.25c-2.139-0.35-3.403-1.364-4.101-3.393c-0.025-0.072-0.049-0.156-0.075-0.244
			c-0.001-1.799-0.003-3.599-0.004-5.398C81.443,65.08,82.021,61.525,80.832,58.48z M75.062,66.708l-0.002,2.604
			c-0.033,3.486,0.003,6.976-0.007,10.469c-0.002,0.575,0.13,1.061,0.343,1.476c-2.598,0.186-5.194,0.372-7.787,0.503
			c-0.437,0.022-0.877,0.022-1.316,0.031c0.187-4.275-0.031-8.399-0.641-12.479c0.162-3.294,0.296-6.589,0.29-9.889
			c0.008-0.903-0.352-1.559-0.878-1.998c-0.008-0.094,0.005-0.185-0.018-0.28c-1.137-4.538-3.936-9.257-6.319-13.25
			c-1.201-2.013-2.338-4.059-3.381-6.158c2.729,0.159,6.593,0.887,10.715,1.527c0.167,1.24,0.259,2.49,0.423,3.73
			c0.29,2.192,0.712,4.476,0.729,6.692c0.015,2.095,3.057,3.097,4.078,1.105c1.726-3.371,3.283-6.882,4.417-10.508
			c1.3,0.034,2.55-0.002,3.734-0.117c-0.352,1.361,0.035,2.848,1.233,3.626c-1.546,4.109-2.973,8.263-4.242,12.455
			c-0.421,0.263-0.747,0.721-0.817,1.406c-0.043,0.424-0.055,0.849-0.092,1.273C74.722,61.388,75.063,64.016,75.062,66.708z
			 M51.418,75.753c-0.005-0.117-0.003-0.23-0.019-0.351c0.005-0.012,0.011-0.022,0.015-0.034c0.366-0.891,0.137-1.858-0.389-2.653
			c-0.037-0.268-0.076-0.536-0.113-0.804c0.497,1.217,1.022,2.426,1.576,3.627C52.144,75.553,51.787,75.618,51.418,75.753z
			 M70.83,39.915c-0.171,0.579-0.36,1.152-0.549,1.725c-0.095-0.538-0.208-1.174-0.355-1.83
			C70.228,39.847,70.528,39.88,70.83,39.915z M123.904,13.856c-3.225-1.572-6.457-2.942-9.693-4.107
			c3.703,1.017,7.341,2.267,10.855,3.819C124.645,13.58,124.264,13.697,123.904,13.856z M69.992,176.573
			c-0.695-0.237-1.39-0.475-2.081-0.729c0.057-0.058,0.116-0.111,0.169-0.172c0.769,0.21,1.538,0.405,2.307,0.585
			C70.246,176.353,70.116,176.459,69.992,176.573z M142.751,136.62c-7.457,8.461-20.155,7.451-30.377,7.734
			c-11.785,0.326-23.59-0.079-35.365-0.548c-13.94-0.557-39.548,2.271-42.007-16.564c-1.07-8.2,0.88-18.204,4.316-25.706
			c3.221-7.032,9.106-9.461,15.265-12.621c2.034,0.202,4.036,0.192,5.504,0.222c8.091,0.166,16.194-0.615,24.263-1.085
			c9.605-0.559,19.257-0.721,28.876-0.77c5.646-0.029,11.291,0.085,16.934,0.274c0.371,0.752,1.038,1.397,2.054,1.758
			C151.515,96.153,155.948,121.647,142.751,136.62z M148.428,30.839c0.116-0.235,0.208-0.481,0.271-0.737
			c0.785,0.808,1.539,1.644,2.29,2.484C150.145,31.988,149.288,31.409,148.428,30.839z M171.654,71.398
			c-0.35-0.767-0.722-1.525-1.112-2.274c0.134-0.206,0.25-0.423,0.338-0.657c0.321,1.027,0.636,2.055,0.926,3.089
			C171.756,71.501,171.704,71.45,171.654,71.398z"/>
	</g>
</g>
<g>
</g>
<g>
</g>
<g>
</g>
<g>
</g>
<g>
</g>
<g>
</g>
<g>
</g>
<g>
</g>
<g>
</g>
<g>
</g>
<g>
</g>
<g>
</g>
<g>
</g>
<g>
</g>
<g>
</g>
</svg>
